<?xml version="1.0" encoding="utf-8"?>
<svg viewBox="-0.582 0.375 197.161 143.149" xmlns="http://www.w3.org/2000/svg">
  <path id="Shape" class="st0" d="M 116.575 40.275 L 116.575 33.575 C 116.575 25.075 116.575 16.475 116.575 7.975 C 116.575 1.375 115.575 0.475 109.175 0.375 C 107.275 0.375 105.375 0.375 103.575 0.375 C 97.475 0.475 97.075 0.775 97.075 6.575 C 97.075 19.375 97.075 32.275 97.075 45.075 C 97.075 57.875 97.075 70.775 97.075 83.575 C 97.075 85.775 96.675 88.175 98.775 89.775 C 102.875 92.975 107.275 95.875 111.875 98.375 C 114.375 99.675 116.175 98.575 116.475 95.475 C 116.675 92.875 116.775 90.275 116.575 87.675 C 116.275 81.475 118.275 75.975 121.575 70.875 C 133.075 52.975 157.775 52.175 170.375 69.075 C 177.075 78.075 178.175 88.175 176.575 98.775 C 175.375 106.675 171.075 112.875 164.575 117.475 C 153.475 125.475 141.175 125.875 128.675 122.375 C 116.775 119.075 106.575 112.375 96.675 105.375 C 89.375 100.175 82.375 94.675 75.075 89.375 C 62.775 80.375 48.975 77.375 34.175 80.775 C 18.175 84.475 6.775 93.975 0.275 108.975 C -1.625 113.475 -0.425 115.175 4.475 115.275 C 8.575 115.375 12.675 115.175 16.875 115.275 C 19.675 115.375 21.575 114.375 22.675 111.775 C 23.075 110.975 23.475 110.075 23.975 109.375 C 29.175 100.575 39.675 96.375 49.575 99.175 C 54.075 100.375 58.375 102.275 62.375 104.775 C 71.375 110.475 79.975 116.775 88.575 123.075 C 105.875 135.975 124.375 145.175 146.975 143.275 C 162.375 141.975 175.175 136.375 185.075 124.675 C 192.975 115.375 196.475 104.475 196.575 92.275 C 196.675 81.375 194.775 71.275 189.175 61.875 C 179.675 46.175 165.275 37.875 147.175 37.175 C 138.475 36.975 129.975 39.175 122.575 43.675 C 116.575 47.375 116.475 47.275 116.575 40.275 Z" style="fill: rgb(27, 24, 20);"/>
</svg>