<?xml version="1.0" encoding="iso-8859-1"?>
<!-- Uploaded to: SVG Repo, www.svgrepo.com, Generator: SVG Repo Mixer Tools -->
<svg fill="#000000" height="800px" width="800px" version="1.1" id="Layer_1" xmlns="http://www.w3.org/2000/svg" xmlns:xlink="http://www.w3.org/1999/xlink" 
	 viewBox="0 0 512.002 512.002" xml:space="preserve">
<g>
	<g>
		<path d="M261.562,233.74h-16.695V50.09c0-27.618-22.469-50.086-50.086-50.086h-44.521c-27.618,0-50.086,22.469-50.086,50.086
			v183.65H83.477C37.448,233.74,0,271.188,0,317.218v111.303c0,46.029,37.448,83.477,83.477,83.477h178.085
			c46.029,0,83.477-37.448,83.477-83.477V317.218C345.04,271.188,307.592,233.74,261.562,233.74z M133.564,50.09
			c0-9.206,7.49-16.695,16.695-16.695h44.521c9.206,0,16.695,7.49,16.695,16.695v116.868h-77.912V50.09z M133.564,200.35h77.912
			v33.391h-77.912V200.35z M311.649,428.521c0,27.618-22.469,50.086-50.086,50.086H83.477c-27.618,0-50.086-22.469-50.086-50.086
			V317.218c0-27.618,22.469-50.086,50.086-50.086h33.391h111.303h33.391c27.618,0,50.086,22.469,50.086,50.086V428.521z"/>
	</g>
</g>
<g>
	<g>
		<path d="M261.562,300.522H83.477c-9.22,0-16.695,7.475-16.695,16.695v111.303c0,9.22,7.475,16.695,16.695,16.695h178.085
			c9.22,0,16.695-7.475,16.695-16.695V317.218C278.258,307.997,270.783,300.522,261.562,300.522z M244.867,411.826H100.173v-77.912
			h144.694V411.826z"/>
	</g>
</g>
<g>
	<g>
		<path d="M511.598,491.68l-15.017-67.577c-4.719-21.237-20.318-37.406-40.237-43.269V267.131H495.3
			c9.22,0,16.695-7.475,16.695-16.695V50.09c-0.001-27.618-22.47-50.086-50.088-50.086h-44.521
			c-27.618,0-50.086,22.469-50.086,50.086v200.346c0,9.22,7.475,16.695,16.695,16.695h38.956v113.703
			c-19.918,5.863-35.517,22.032-40.236,43.269l-15.017,67.577c-2.315,10.414,5.619,20.317,16.298,20.317H495.3
			C505.967,511.997,513.916,502.105,511.598,491.68z M400.691,50.09c0-9.206,7.49-16.695,16.695-16.695h44.521
			c9.206,0,16.695,7.49,16.695,16.695v116.868h-77.912V50.09z M400.691,233.74V200.35h77.912v33.391H400.691z M404.808,478.606
			l10.503-47.259c2.554-11.495,12.563-19.523,24.336-19.523c11.775,0.001,21.782,8.028,24.336,19.523l10.503,47.259H404.808z"/>
	</g>
</g>
</svg>