<?xml version="1.0" encoding="utf-8"?><!-- Uploaded to: SVG Repo, www.svgrepo.com, Generator: SVG Repo Mixer Tools -->
<svg width="800px" height="800px" viewBox="0 0 24 24" fill="none" xmlns="http://www.w3.org/2000/svg">
<path fill-rule="evenodd" clip-rule="evenodd" d="M9.44623 8.03189C9.79809 7.43639 10 6.74178 10 6C10 3.79086 8.20914 2 6 2C3.79086 2 2 3.79086 2 6C2 8.20914 3.79086 10 6 10C6.74184 10 7.43651 9.79805 8.03204 9.44614L10.5859 12L8.03204 14.5539C7.43651 14.2019 6.74184 14 6 14C3.79086 14 2 15.7909 2 18C2 20.2091 3.79086 22 6 22C8.20914 22 10 20.2091 10 18C10 17.2582 9.79809 16.5636 9.44622 15.9681L20.7072 4.70711C21.0977 4.31658 21.0977 3.68342 20.7072 3.29289C20.3167 2.90237 19.6835 2.90237 19.293 3.29289L12.0001 10.5858L9.44623 8.03189ZM6 4C4.89543 4 4 4.89543 4 6C4 7.10457 4.89543 8 6 8C6.53462 8 7.02025 7.79023 7.37907 7.44851C7.39004 7.43643 7.40135 7.42455 7.41301 7.41289C7.42466 7.40124 7.43652 7.38994 7.44859 7.37899C7.79026 7.02018 8 6.53458 8 6C8 4.89543 7.10457 4 6 4ZM6 16C4.89543 16 4 16.8954 4 18C4 19.1046 4.89543 20 6 20C7.10457 20 8 19.1046 8 18C8 17.4654 7.79025 16.9798 7.44855 16.621C7.4365 16.61 7.42465 16.5987 7.41301 16.5871C7.40136 16.5755 7.39006 16.5636 7.3791 16.5515C7.02028 16.2098 6.53464 16 6 16Z" fill="#000000"/>
<path d="M14.2929 14.2929C14.6834 13.9024 15.3166 13.9024 15.7071 14.2929L20.7071 19.2929C21.0976 19.6834 21.0976 20.3166 20.7071 20.7071C20.3166 21.0976 19.6834 21.0976 19.2929 20.7071L14.2929 15.7071C13.9024 15.3166 13.9024 14.6834 14.2929 14.2929Z" fill="#000000"/>
</svg>