<?xml version="1.0" encoding="utf-8"?>

<!DOCTYPE svg PUBLIC "-//W3C//DTD SVG 1.1//EN" "http://www.w3.org/Graphics/SVG/1.1/DTD/svg11.dtd">
<!-- Uploaded to: SVG Repo, www.svgrepo.com, Generator: SVG Repo Mixer Tools -->
<svg height="800px" width="800px" version="1.1" id="_x32_" xmlns="http://www.w3.org/2000/svg" xmlns:xlink="http://www.w3.org/1999/xlink" 
	 viewBox="0 0 512 512"  xml:space="preserve">
<style type="text/css">
	.st0{fill:#000000;}
</style>
<g>
	<path class="st0" d="M510.321,230.969v0.118l-0.095-0.91c-0.675-5.794-5.495-38.609-30.302-81.11l-0.377-0.863l-0.691-0.942
		c-11.806-19.893-27.947-41.78-50.023-63.886l-0.031-0.015v-0.016l-0.078-0.063c-36.756-36.771-72.961-57.166-100.28-68.314
		c-13.676-5.582-25.121-8.855-33.349-10.771c-4.128-0.942-7.426-1.554-9.813-1.939c-1.193-0.196-2.151-0.322-2.873-0.416
		l-0.894-0.102l-0.487-0.056l-17.569-1.679l-50.415,184.452l-52.535,52.534l-4.946,4.938L23.724,373.774
		C7.93,389.554,0,410.357,0,431.027c0,20.67,7.945,41.474,23.724,57.253c15.779,15.779,36.583,23.731,57.245,23.716
		c20.678,0.015,41.482-7.929,57.261-23.716l131.854-131.847l4.93-4.946l52.534-52.527L512,248.546L510.321,230.969z
		 M118.446,468.513c-2.59,2.591-5.385,4.851-8.321,6.783c-2.937,1.946-6.014,3.564-9.201,4.851
		c-6.374,2.583-13.141,3.862-19.956,3.878c-8.164-0.016-16.282-1.9-23.724-5.629c-0.298-0.15-0.612-0.275-0.91-0.432
		c-1.225-0.628-2.403-1.366-3.58-2.104c-0.314-0.196-0.628-0.362-0.941-0.565c-2.937-1.932-5.716-4.192-8.322-6.791
		c-2.591-2.59-4.851-5.385-6.798-8.314c-1.319-2.017-2.449-4.128-3.47-6.264c-3.454-7.215-5.228-15.026-5.244-22.908
		c0.016-6.798,1.303-13.566,3.878-19.94c1.288-3.179,2.905-6.264,4.836-9.208c1.947-2.928,4.208-5.723,6.798-8.314L170.4,266.649
		l74.955,74.955L118.446,468.513z M255.247,331.712l-74.955-74.955l51.53-51.522l74.94,74.948L255.247,331.712z M318.725,272.38
		l-79.1-79.1L284.12,30.463c2.12,0.408,4.836,1.013,7.991,1.814c0.283,0.071,0.55,0.134,0.832,0.212
		c1.461,0.384,3.047,0.816,4.695,1.303c0.236,0.063,0.44,0.11,0.66,0.188c3.862,1.13,8.196,2.559,12.953,4.318
		c0.236,0.094,0.502,0.196,0.753,0.283c2.088,0.801,4.271,1.649,6.516,2.575c0.455,0.188,0.942,0.392,1.413,0.596
		c2.104,0.88,4.255,1.822,6.469,2.834c0.565,0.243,1.114,0.51,1.664,0.77c2.245,1.043,4.553,2.158,6.892,3.336
		c0.346,0.181,0.706,0.353,1.052,0.534l-26.064,53.657c-1.68,3.478-0.236,7.654,3.25,9.35c3.469,1.68,7.646,0.236,9.342-3.235
		l25.78-53.076c1.288,0.761,2.622,1.555,3.941,2.347c1.664,1.005,3.328,2.049,5.024,3.125c1.633,1.028,3.234,2.056,4.883,3.148
		c1.209,0.809,2.433,1.656,3.658,2.496c1.397,0.958,2.794,1.939,4.208,2.944c1.272,0.927,2.575,1.853,3.862,2.81
		c1.444,1.068,2.92,2.199,4.38,3.314c1.24,0.958,2.481,1.892,3.736,2.896c2.481,1.97,4.993,4.028,7.505,6.163
		c1.209,1.021,2.434,2.12,3.658,3.187c1.554,1.366,3.108,2.732,4.663,4.153c1.303,1.186,2.621,2.41,3.925,3.65
		c0.691,0.636,1.366,1.311,2.056,1.962l-19.924,19.281c-2.779,2.677-2.842,7.112-0.157,9.884c2.685,2.779,7.096,2.85,9.891,0.165
		l20.097-19.454c0.283,0.299,0.581,0.597,0.864,0.879c1.366,1.445,2.684,2.866,4.003,4.294c0.786,0.855,1.555,1.712,2.324,2.567
		c1.272,1.421,2.544,2.834,3.768,4.248c0.722,0.84,1.413,1.672,2.12,2.504c2.166,2.558,4.255,5.087,6.248,7.607
		c0.723,0.903,1.461,1.814,2.168,2.716c0.878,1.154,1.726,2.284,2.575,3.43c0.863,1.146,1.726,2.277,2.558,3.423
		c0.77,1.044,1.508,2.088,2.246,3.14c0.879,1.24,1.759,2.481,2.591,3.706c0.644,0.942,1.288,1.884,1.9,2.81
		c0.942,1.397,1.837,2.794,2.732,4.176c0.486,0.754,0.988,1.507,1.46,2.262c0.094,0.14,0.173,0.29,0.267,0.432l-86.04,49.158
		c-3.344,1.924-4.522,6.186-2.606,9.538c1.916,3.36,6.186,4.522,9.546,2.606l86.196-49.245c0.22,0.392,0.456,0.801,0.675,1.201
		c0.424,0.769,0.801,1.507,1.209,2.268c0.894,1.657,1.759,3.313,2.575,4.938c0.377,0.707,0.722,1.413,1.068,2.127
		c0.816,1.672,1.617,3.321,2.386,4.938c0.252,0.565,0.502,1.107,0.754,1.656c0.816,1.767,1.585,3.494,2.292,5.174
		c0.173,0.392,0.346,0.769,0.502,1.154c3.548,8.424,6.123,15.913,7.96,22.138c1.743,5.927,2.811,10.669,3.47,14.044L318.725,272.38z
		"/>
</g>
</svg>