<?xml version="1.0" standalone="no"?>
<!DOCTYPE svg PUBLIC "-//W3C//DTD SVG 20010904//EN"
 "http://www.w3.org/TR/2001/REC-SVG-20010904/DTD/svg10.dtd">
<svg version="1.0" xmlns="http://www.w3.org/2000/svg"
 width="512.000000pt" height="512.000000pt" viewBox="0 0 512.000000 512.000000"
 preserveAspectRatio="xMidYMid meet">

<g transform="translate(0.000000,512.000000) scale(0.100000,-0.100000)"
fill="#000000" stroke="none">
<path d="M2437 5104 c-257 -55 -529 -319 -716 -693 -107 -214 -168 -393 -198
-584 l-16 -102 -67 -70 c-241 -252 -391 -548 -457 -901 -15 -80 -17 -218 -20
-1346 -4 -1238 -3 -1258 16 -1297 71 -139 260 -147 342 -14 l24 38 6 1255 c5
1124 7 1263 22 1330 21 94 62 216 98 294 l28 61 1 -531 c0 -293 5 -577 10
-633 43 -411 363 -746 807 -843 138 -30 348 -30 486 0 444 97 764 432 807 843
5 56 10 340 10 633 l1 531 28 -61 c36 -78 77 -200 98 -294 15 -67 17 -206 22
-1330 l6 -1255 24 -38 c82 -133 271 -125 342 14 19 39 20 59 16 1297 -3 1128
-5 1266 -20 1346 -66 353 -216 649 -457 901 l-67 70 -16 102 c-68 432 -339
920 -636 1143 -87 66 -191 115 -285 134 -91 19 -149 19 -239 0z m640 -1299
c48 -20 71 -41 94 -87 19 -37 19 -68 17 -861 l-3 -824 -29 -37 c-73 -96 -194
-111 -282 -34 -74 65 -69 5 -72 873 -2 523 1 796 8 829 26 123 152 189 267
141z"/>
</g>
</svg>
