<?xml version="1.0" encoding="UTF-8" standalone="no"?>
<!-- Uploaded to: SVG Repo, www.svgrepo.com, Generator: SVG Repo Mixer Tools -->

<svg
   width="800"
   height="800"
   viewBox="0 0 24 24"
   fill="none"
   version="1.1"
   id="svg4"
   sodipodi:docname="star-regular.svg"
   xmlns:inkscape="http://www.inkscape.org/namespaces/inkscape"
   xmlns:sodipodi="http://sodipodi.sourceforge.net/DTD/sodipodi-0.dtd"
   xmlns="http://www.w3.org/2000/svg"
   xmlns:svg="http://www.w3.org/2000/svg">
  <defs
     id="defs8" />
  <sodipodi:namedview
     id="namedview6"
     pagecolor="#ffffff"
     bordercolor="#000000"
     borderopacity="0.25"
     inkscape:showpageshadow="2"
     inkscape:pageopacity="0.0"
     inkscape:pagecheckerboard="0"
     inkscape:deskcolor="#d1d1d1"
     showgrid="false" />
  <g
     id="g656">
    <path
       d="m 20.9244,9.07557 -0.0313,0.0313 -4.061,4.06103 c -0.5136,0.5136 -0.7083,1.2652 -0.5088,1.9636 l 1.6229,5.6802 c 0.0184,0.0644 -0.0534,0.1168 -0.1092,0.0796 L 17.8186,20.879 13.1094,17.7396 c -0.6718,-0.4479 -1.547,-0.4479 -2.2188,0 L 6.17083,20.8861 C 6.1124,20.9251 6.03711,20.8701 6.0564,20.8026 l 0.00753,-0.0264 1.61278,-5.6447 c 0.19954,-0.6984 0.00476,-1.45 -0.50884,-1.9636 L 3.13547,9.13547 3.09579,9.09579 C 3.06044,9.06044 3.08548,9 3.13547,9 h 5.0312 C 8.97407,9 9.70228,8.51452 10.0128,7.76923 l 1.9241,-4.61779 c 0.0234,-0.05609 0.1028,-0.05609 0.1262,0 l 1.9241,4.61779 C 14.2977,8.51452 15.0259,9 15.8333,9 h 5.0598 c 0.0395,0 0.0592,0.04768 0.0313,0.07557 z"
       stroke="#323232"
       stroke-width="2"
       stroke-linejoin="round"
       id="path2" />
    <path
       style="fill:#323232;fill-opacity:1;stroke-width:0.03"
       d="m 4.6031364,9.2641737 c 0.057901,0 0.1159491,0.00413 0.1737033,0 0.2561964,-0.0183 0.224049,-0.044496 0.492159,-0.057901 0.2891442,-0.014457 0.5791437,0.00877 0.8685165,0 0.4058259,-0.012298 0.8101599,-0.07236 1.2159228,-0.086851 0.5245065,-0.018732 0.3409431,0.031616 0.9264171,-0.028951 0.045347,-0.00469 0.5500911,-0.1013346 0.6079614,-0.1158021 0.2623179,-0.065579 0.5060193,-0.1737033 0.7816647,-0.1737033 0.1262322,0 0.3297888,0.040696 0.4342578,-0.028951 0.06651,-0.04434 -0.01241,-0.016536 0.0579,-0.086851 0.0068,-0.00682 0.0259,0.00915 0.02895,0 0.01839,-0.055184 0.01328,-0.3269358 0.02895,-0.4053078 0.01197,-0.059848 0.04593,-0.1138551 0.0579,-0.173703 0.01314,-0.065709 0.01581,-0.1369449 0.02895,-0.2026539 0.02199,-0.1099542 0.09407,-0.2097966 0.115802,-0.318456 0.01224,-0.061181 0.0052,-0.2419914 0.02895,-0.2895054 0.01831,-0.03662 0.06654,-0.051304 0.08685,-0.086851 0.01974,-0.034547 0.01637,-0.078055 0.02895,-0.1158024 0.04251,-0.1275138 0.08843,-0.2543169 0.144753,-0.3763569 0.08835,-0.1914228 0.224671,-0.3624915 0.318456,-0.5500605 0.04163,-0.083254 0.06978,-0.1800189 0.115802,-0.2605548 0.07209,-0.1261488 0.166002,-0.2451528 0.231604,-0.3763569 0.02324,-0.046481 0.03036,-0.1006842 0.0579,-0.1447527 0.0217,-0.034719 0.06021,-0.055766 0.08685,-0.086852 0.08926,-0.1041357 0.170728,-0.2148096 0.260555,-0.318456 0.07151,-0.082506 0.159069,-0.1500027 0.231604,-0.2316042 0.09336,-0.1050312 0.123524,-0.1973466 0.260555,-0.2316045 0.17785,-0.044462 0.19682,0.1330851 0.260555,0.2605551 0.03479,0.069588 0.07265,0.1379184 0.115802,0.2026536 0.06855,0.1028271 0.171587,0.1814748 0.231604,0.2895054 0.01932,0.034782 0.01498,0.078547 0.02895,0.1158024 0.04968,0.1324815 0.12428,0.2620017 0.144753,0.4053075 0.0055,0.038213 -0.0094,0.078354 0,0.1158021 0.0157,0.062803 0.07416,0.1102251 0.08685,0.1737033 0.03991,0.1995744 0.06103,0.4071312 0.115803,0.6079614 0.01136,0.041636 0.04854,0.073673 0.0579,0.1158021 0.01047,0.047102 -0.0117,0.097943 0,0.1447527 0.0084,0.033755 0.0442,0.054871 0.0579,0.086852 0.05554,0.1295877 0.08921,0.2757195 0.144752,0.4053075 0.03331,0.077727 0.102711,0.158031 0.144753,0.2316042 0.03212,0.056206 0.04108,0.1279287 0.08685,0.1737033 0.0246,0.024603 0.06225,0.033298 0.08685,0.057901 0.108609,0.1086084 0.01832,0.053373 0.08685,0.1447527 0.09925,0.1323354 0.205511,0.28176 0.347407,0.3763572 0.02539,0.016927 0.05956,0.015303 0.08685,0.02895 0.155884,0.077942 0.256551,0.15678 0.434258,0.2316045 0.179923,0.075757 0.36574,0.1184067 0.550061,0.1737033 0.04978,0.014933 0.09412,0.046216 0.144752,0.057901 0.07581,0.017495 0.155529,0.012649 0.231605,0.028951 0.05968,0.012788 0.114233,0.044177 0.173703,0.057901 0.244481,0.056419 0.502012,0.1026072 0.752714,0.1158021 0.288513,0.015185 0.580276,-0.019216 0.868517,0 0.07763,0.00518 0.154402,0.0193 0.231604,0.028951 0.08685,0.00965 0.173339,0.0235 0.260554,0.028951 0.371322,0.023207 0.760166,-0.046113 1.129072,0 0.202129,0.025266 0.412764,0.088982 0.607961,0.1447527 0.03866,0.011046 0.343693,0.083138 0.347407,0.086851 0.01757,0.017569 -0.0054,0.3659748 -0.02895,0.4053075 -0.04957,0.082624 -0.146115,0.088895 -0.202654,0.1737033 -0.150327,0.2254918 0.09347,-0.03557 -0.08685,0.1447528 -0.156191,0.156191 -0.354069,0.259146 -0.52111,0.405308 -0.184649,0.161568 -0.365518,0.330684 -0.55006,0.492159 -0.117466,0.102783 -0.180097,0.198106 -0.289506,0.318456 -0.109597,0.120557 -0.232184,0.232184 -0.347406,0.347406 -0.08533,0.08533 -0.168664,0.181792 -0.260555,0.260555 -0.10326,0.08851 -0.149735,0.10714 -0.231605,0.202654 -0.146096,0.170446 -0.299366,0.341254 -0.434258,0.52111 -0.03884,0.05179 -0.04641,0.123153 -0.08685,0.173703 -0.02174,0.02717 -0.06225,0.0333 -0.08685,0.0579 -0.0851,0.0851 -0.108577,0.249717 -0.173703,0.347407 -0.128054,0.192081 -0.05004,-0.01573 -0.144753,0.173703 -0.04187,0.08374 -0.05823,0.217536 -0.115802,0.289505 -0.02174,0.02717 -0.06663,0.02959 -0.08685,0.0579 -0.08875,0.124258 -0.10207,0.320936 -0.144752,0.463209 -0.03508,0.116918 -0.09186,0.227711 -0.115803,0.347407 -0.02174,0.108689 -0.01497,0.488219 0,0.607961 0.02985,0.238814 0.14377,0.455344 0.173704,0.694813 0.0084,0.06703 -0.0075,0.135516 0,0.202654 0.01617,0.145573 0.07078,0.289614 0.08685,0.434258 0.01456,0.131074 -0.02357,0.275663 0,0.405308 0.01092,0.06005 0.04787,0.1135 0.0579,0.173703 0.01723,0.103377 0.01172,0.27298 0.02895,0.376357 0.0081,0.04854 0.0193,0.0965 0.02895,0.144753 0.0193,0.06755 0.04533,0.133532 0.0579,0.202654 0.01677,0.09221 0.006,0.197509 0.02895,0.289505 0.0157,0.0628 0.06412,0.113089 0.08685,0.173703 0.0298,0.07948 0.04192,0.185668 0.08685,0.260555 0.01404,0.02341 0.0457,0.03349 0.0579,0.0579 0.09655,0.193091 0.167081,0.595889 -0.02895,0.752714 -0.06311,0.05049 -0.06407,0.01742 -0.144753,0.02895 -0.167472,0.02392 -0.298366,0.04431 -0.463209,-0.02895 -0.05142,-0.02285 -0.09353,-0.06357 -0.144752,-0.08685 -0.111125,-0.05051 -0.234071,-0.07047 -0.347407,-0.115803 -0.236631,-0.09465 -0.459987,-0.220611 -0.694813,-0.318456 -0.215386,-0.08974 -0.431501,-0.175388 -0.636912,-0.289505 -0.192609,-0.107005 -0.386525,-0.21152 -0.579011,-0.318456 -0.09838,-0.05465 -0.187324,-0.126543 -0.289505,-0.173703 -0.159122,-0.07344 -0.33168,-0.109512 -0.492159,-0.173704 -0.137999,-0.0552 -0.179575,-0.106875 -0.318456,-0.144752 -0.208865,-0.05696 -0.427142,-0.08881 -0.636912,-0.144753 -0.05021,-0.01339 -0.09462,-0.04423 -0.144753,-0.0579 -0.280533,-0.07651 -0.579573,-0.08685 -0.868516,-0.08685 -0.06755,0 -0.137702,-0.01856 -0.202654,0 -0.483643,0.138184 -1.1884473,0.80105 -1.5633291,1.129072 -0.2629356,0.230068 -0.5556813,0.393642 -0.8685165,0.55006 -0.2517756,0.125888 -0.5344137,0.234265 -0.810615,0.289505 -0.1431177,0.02862 -0.2960406,0.04078 -0.4342581,0.08685 -0.03718,0.01239 -0.1366968,0.06596 -0.1737033,0.02895 -0.057499,-0.0575 -0.057901,-0.350683 -0.057901,-0.434258 0,-0.206981 -0.042869,-0.399176 -0.028951,-0.607961 0.00823,-0.123458 0.060539,-0.291285 0.086852,-0.405308 0.1004472,-0.435272 -0.051014,0.212348 0.02895,-0.347406 0.00994,-0.06955 0.042104,-0.134199 0.057901,-0.202654 0.013199,-0.0572 0.010388,-0.118016 0.028951,-0.173703 0.049301,-0.147903 0.1244022,-0.286356 0.1737033,-0.434258 0.018562,-0.05569 0.014714,-0.116757 0.028951,-0.173704 C 7.3904233,16.614337 7.458854,16.475537 7.498169,16.328106 7.528925,16.21277 7.559126,16.097223 7.58502,15.9807 c 0.00628,-0.02826 -0.00762,-0.05892 0,-0.08685 0.021694,-0.07955 0.063587,-0.152504 0.086851,-0.231604 0.038134,-0.129655 0.057289,-0.272276 0.086852,-0.405308 0.034266,-0.154196 0.089908,-0.307846 0.1158021,-0.463209 0.022517,-0.135102 -0.016888,-0.08444 0,-0.202653 0.019799,-0.138596 0.028951,-0.263995 0.028951,-0.405308 0,-0.08886 0.014722,-0.201177 0,-0.289505 C 7.8254193,13.427787 7.5064101,13.049903 7.2376356,12.680338 7.2045393,12.63483 7.1853303,12.580002 7.1507841,12.535585 7.1172693,12.492495 7.0677357,12.463455 7.034982,12.419783 6.980358,12.346951 6.9440667,12.261593 6.8902293,12.188179 6.7386522,11.981482 6.5411991,11.798455 6.3691194,11.609168 6.2336814,11.460186 6.1060836,11.288231 5.9638119,11.145959 5.8347567,11.016904 5.6887374,10.899835 5.5585041,10.769602 c -0.02895,-0.02895 -0.057901,-0.0579 -0.086852,-0.08685 -0.028951,-0.0386 -0.052733,-0.08168 -0.086851,-0.115802 -0.068237,-0.06824 -0.1633674,-0.105466 -0.2316045,-0.173703 -0.015258,-0.01526 -0.016004,-0.04064 -0.028951,-0.0579 -0.056605,-0.07547 -0.3279558,-0.318005 -0.3474063,-0.3763574 -0.0061,-0.01831 0.010706,-0.041842 0,-0.057901 -0.01197,-0.017954 -0.042643,-0.013692 -0.057901,-0.028951 -0.013647,-0.013647 0.00863,-0.040638 0,-0.057901 -0.031944,-0.063887 -0.1108116,-0.2101398 -0.057901,-0.2895054 0.01514,-0.022711 0.042761,-0.03519 0.057901,-0.057901 0.016927,-0.025391 0.015303,-0.059557 0.028951,-0.086852 0.041721,-0.083441 0.1088004,-0.1956522 0.1737033,-0.2605548 0.015258,-0.015258 0.045932,-0.010996 0.057901,-0.028951 0.010706,-0.016059 -0.010706,-0.041842 0,-0.057901 0.01197,-0.017954 0.040638,-0.016004 0.057901,-0.028951 0.017489,-0.013117 0.1016889,-0.087576 0.1158021,-0.1158024 0.00432,-0.00863 -0.00682,-0.022127 0,-0.02895 0.00265,-0.00265 0.047294,-0.018344 0.057901,-0.028951"
       id="path586" />
  </g>
</svg>
